<?xml version="1.0" standalone="no"?>
<!DOCTYPE svg PUBLIC "-//W3C//DTD SVG 20010904//EN"
 "http://www.w3.org/TR/2001/REC-SVG-20010904/DTD/svg10.dtd">
<svg version="1.0" xmlns="http://www.w3.org/2000/svg"
 width="1024.000000pt" height="1024.000000pt" viewBox="0 0 1024.000000 1024.000000"
 preserveAspectRatio="xMidYMid meet">

<g transform="translate(0.000000,1024.000000) scale(0.100000,-0.100000)"
fill="#000000" stroke="none">
<path d="M5850 9174 c0 -3 24 -38 53 -78 111 -147 110 -153 -20 -75 -113 69
-233 116 -345 135 -137 24 -414 14 -558 -19 -316 -75 -711 -268 -1022 -501
-148 -110 -179 -144 -106 -117 87 32 86 26 -23 -86 -130 -133 -182 -218 -223
-360 -17 -59 -8 -68 32 -30 l24 22 -27 -70 c-30 -78 -55 -196 -55 -256 0 -32
4 -39 19 -39 17 0 19 -5 13 -37 -11 -60 -8 -303 5 -476 15 -188 8 -241 -43
-303 -97 -118 -97 -323 -1 -609 69 -204 107 -277 179 -348 67 -66 115 -94 236
-136 l76 -26 45 -115 45 -115 3 -180 c2 -99 0 -308 -4 -465 l-8 -284 -95 -42
c-52 -23 -151 -65 -220 -94 -69 -29 -260 -118 -425 -198 -712 -344 -1001 -471
-1382 -606 -175 -63 -277 -115 -388 -201 -241 -186 -388 -391 -512 -715 -24
-63 -82 -243 -128 -400 -122 -413 -155 -501 -239 -633 -19 -29 -41 -70 -50
-92 -15 -36 -15 -40 5 -82 16 -33 40 -58 96 -96 218 -152 930 -529 1149 -609
195 -71 345 -85 475 -43 55 18 58 17 135 -3 224 -60 814 -167 1169 -211 1418
-178 2739 -138 3820 115 83 19 215 48 295 64 179 35 305 67 342 86 15 8 62 19
104 24 386 49 1101 439 1179 643 25 66 17 107 -53 255 -73 154 -96 228 -157
492 -70 309 -92 393 -137 530 -81 248 -159 380 -311 527 -138 134 -226 186
-565 338 -163 73 -439 200 -612 282 -173 83 -439 208 -590 279 -151 71 -369
176 -485 234 l-210 105 -6 185 c-4 102 -7 298 -8 435 l-1 250 59 150 c65 165
55 155 181 201 109 40 167 102 252 271 74 146 148 363 168 491 7 47 10 121 7
168 -4 73 -10 96 -46 167 -53 106 -61 151 -33 177 39 36 45 82 37 254 -8 178
-8 197 1 308 6 86 -14 217 -47 300 -11 28 -17 53 -14 57 4 3 20 -9 36 -27 37
-41 37 -31 -5 76 -75 194 -132 284 -231 363 -49 40 -65 59 -65 78 -1 77 -55
136 -316 348 -340 275 -474 378 -474 367z m-615 -734 c-21 -22 -36 -40 -32
-40 4 0 33 14 65 31 52 28 51 24 -3 -17 -19 -15 -19 -15 5 -9 89 21 209 45
230 45 23 0 18 -8 -50 -77 -73 -76 -219 -275 -187 -257 8 5 47 44 85 87 77 87
144 141 218 178 41 20 63 24 139 23 75 -1 105 -6 180 -33 168 -61 309 -158
368 -254 17 -27 33 -45 35 -39 4 14 -45 121 -74 160 -14 18 -24 36 -21 38 10
10 132 -165 168 -241 58 -123 170 -515 148 -515 -5 0 -9 6 -9 13 0 23 -53 122
-57 106 -2 -8 12 -66 32 -128 19 -62 39 -152 45 -199 13 -113 13 -516 0 -640
-43 -406 -113 -887 -139 -952 -9 -24 -10 -24 -10 8 -1 50 -21 120 -39 134 -13
11 -14 10 -5 -7 23 -44 37 -164 23 -199 -6 -15 -8 -5 -8 34 0 75 -3 89 -12 60
-8 -25 -8 -25 -9 -2 -1 29 -18 62 -33 62 -7 0 -7 -4 -1 -12 14 -18 46 -155 40
-170 -3 -7 -6 -1 -6 15 -1 26 -20 39 -22 15 -1 -7 -5 3 -9 22 -5 19 -7 44 -6
55 2 11 1 14 -1 7 -4 -11 -8 -11 -21 0 -14 11 -15 10 -8 -7 5 -11 9 -33 10
-50 1 -16 6 -40 10 -52 4 -13 3 -23 -2 -23 -5 0 -16 20 -23 45 -7 25 -17 45
-22 45 -5 0 -6 -7 -3 -16 3 -9 8 -28 11 -42 l5 -27 -11 28 c-6 15 -15 27 -20
27 -13 0 -12 -4 10 -53 27 -59 37 -140 18 -155 -11 -10 -13 -3 -9 41 2 28 -1
65 -7 81 -16 40 -25 26 -13 -18 6 -21 7 -34 1 -31 -5 4 -9 14 -10 23 -1 11 -4
8 -10 -8 -7 -20 -7 -16 -4 15 5 36 4 38 -9 22 -9 -11 -13 -34 -10 -60 l4 -42
-15 50 -14 50 3 -55 c2 -30 0 -66 -5 -80 -7 -22 -8 -20 -6 12 2 39 -15 69 -27
49 -4 -6 -3 -11 3 -11 5 0 9 -9 8 -20 -1 -23 -12 -26 -21 -7 -4 6 -4 2 -2 -9
2 -12 -3 -44 -10 -70 l-14 -49 4 42 c2 24 0 46 -5 49 -5 3 -9 -4 -9 -16 0 -12
-4 -19 -9 -16 -5 4 -7 -4 -4 -16 4 -19 3 -20 -6 -8 -9 12 -11 10 -11 -12 0
-16 -4 -28 -10 -28 -5 0 -10 -11 -10 -25 0 -14 -4 -25 -9 -25 -4 0 -6 22 -3
49 2 27 0 57 -6 66 -7 13 -9 0 -9 -50 0 -37 -5 -70 -10 -74 -9 -5 -29 -95 -25
-112 1 -4 -8 -15 -18 -24 -25 -23 -25 -18 0 36 11 24 20 55 20 70 0 14 5 30
11 36 11 11 2 63 -12 63 -5 0 -7 -11 -4 -23 6 -23 -26 -138 -46 -167 -8 -11
-8 -9 -3 10 4 14 7 32 6 40 0 8 -2 34 -4 58 -1 23 -7 42 -11 42 -5 0 -6 -26
-3 -57 3 -33 2 -50 -3 -39 -7 19 -8 18 -14 -5 -6 -20 -9 -22 -18 -9 -9 13 -10
13 -6 0 2 -8 -2 -22 -10 -31 -8 -10 -15 -31 -15 -49 -1 -20 -4 -27 -9 -18 -7
11 -9 10 -9 -1 0 -7 -6 -11 -14 -8 -9 4 -17 -3 -21 -16 -4 -15 -8 -18 -12 -9
-3 8 0 19 6 25 6 6 11 16 11 22 -1 5 -9 -1 -20 -14 -13 -15 -18 -31 -14 -47 7
-25 -7 -48 -37 -65 -12 -6 -20 -5 -25 3 -4 6 -3 9 2 5 5 -3 16 0 25 6 20 15
35 57 20 57 -6 0 -11 -5 -11 -11 0 -11 -25 -39 -35 -39 -3 0 -1 9 5 21 6 11 9
25 7 32 -4 12 -12 -4 -37 -70 -7 -18 -17 -33 -22 -33 -5 0 -5 7 0 18 5 9 8 28
7 42 -1 14 4 37 11 52 8 15 14 46 13 70 l-1 43 -12 -55 c-12 -57 -38 -105 -58
-105 -6 0 -17 -18 -24 -40 l-13 -40 5 39 c3 22 12 49 20 60 8 11 14 27 14 34
0 29 -82 -96 -101 -153 -4 -11 -6 4 -6 35 0 30 6 66 14 80 15 28 16 40 5 40
-10 0 -34 -70 -33 -98 1 -36 -27 -81 -50 -82 -4 0 -2 20 3 44 6 28 6 56 -1 77
l-9 34 0 -35 c0 -63 -14 -129 -30 -142 -13 -11 -14 -11 -7 2 5 8 11 26 12 40
3 20 1 22 -7 10 -14 -22 -12 -5 4 35 19 46 6 45 -27 -2 -15 -21 -27 -32 -27
-24 0 7 16 31 35 52 32 36 35 44 34 97 l-1 57 -8 -53 c-4 -29 -16 -65 -26 -80
l-19 -27 -3 40 c-2 22 1 41 7 43 6 2 11 11 11 20 -1 14 -3 14 -16 -3 -9 -12
-14 -36 -13 -60 2 -23 -1 -47 -6 -55 -11 -17 -11 -21 -13 -74 -1 -22 -5 -37
-8 -34 -10 10 -6 122 5 151 6 15 7 27 3 27 -10 0 -32 -73 -32 -107 0 -16 -7
-36 -14 -46 -13 -16 -14 -16 -19 4 -3 11 1 39 9 61 17 48 18 61 4 53 -15 -9
-11 46 5 75 14 24 14 24 16 -25 2 -46 3 -47 6 -11 3 21 2 45 -2 54 -5 14 -7
14 -22 -1 -12 -12 -18 -37 -19 -82 -2 -35 -8 -73 -14 -82 -8 -14 -9 -11 -5 17
7 40 -8 90 -27 90 -9 0 -9 -3 0 -12 16 -16 15 -59 -3 -82 -8 -11 -15 -28 -15
-37 0 -10 -5 -21 -11 -24 -13 -9 -27 4 -14 13 12 9 14 18 19 90 2 31 7 66 11
76 6 14 5 17 -3 12 -7 -4 -12 -16 -12 -27 0 -10 -5 -19 -11 -19 -7 0 -9 -10
-5 -26 4 -14 4 -41 0 -61 -5 -29 -8 -33 -16 -19 -6 11 -6 22 2 32 9 9 9 14 2
14 -7 0 -9 7 -5 17 4 11 3 14 -5 9 -7 -4 -10 -25 -8 -51 2 -25 -1 -45 -5 -45
-5 0 -9 9 -9 19 0 11 -4 23 -10 26 -14 9 -12 -2 6 -41 9 -19 14 -37 11 -40 -9
-9 -38 66 -41 103 -5 61 -16 46 -16 -21 0 -50 -3 -67 -12 -64 -18 6 -18 113
-1 162 7 22 11 41 8 44 -3 3 -5 -1 -6 -9 0 -8 -4 -5 -8 6 -9 21 -25 -114 -23
-190 1 -54 -7 -31 -17 46 l-8 64 -2 -60 c-1 -48 -4 -56 -12 -41 -6 10 -9 34
-6 53 3 19 2 46 -3 59 -6 16 -6 42 0 71 7 27 7 50 2 55 -5 5 -11 -13 -15 -44
-3 -29 -8 -62 -12 -73 -6 -16 -5 -17 4 -5 8 11 11 -5 11 -65 -1 -79 -1 -80
-19 -58 -15 18 -19 39 -19 100 0 44 5 85 12 93 10 13 9 13 -7 1 -13 -10 -18
-26 -17 -55 3 -61 0 -65 -16 -21 l-13 40 5 -40 c3 -22 9 -44 12 -50 10 -15 8
-85 -2 -85 -5 0 -6 18 -3 40 3 22 2 40 -2 40 -4 0 -12 12 -19 28 -9 21 -11 22
-8 4 2 -12 0 -20 -5 -16 -5 3 -9 14 -9 24 0 10 -4 22 -10 25 -14 8 -13 2 6
-45 9 -23 14 -43 12 -46 -10 -9 -58 76 -59 103 -1 16 -5 42 -10 58 l-8 30 1
-30 c0 -16 -1 -39 -2 -50 -2 -17 -3 -16 -10 5 -7 23 -8 22 -9 -10 l-2 -35 -15
35 c-8 19 -12 46 -9 60 4 19 3 21 -5 10 -5 -8 -10 -28 -10 -43 0 -16 -4 -26
-9 -23 -4 3 -6 28 -3 55 2 28 -1 56 -7 67 -10 16 -11 9 -8 -36 3 -30 1 -64 -4
-75 -7 -14 -7 -11 -3 13 3 18 1 32 -4 32 -14 0 -23 -30 -16 -53 4 -14 3 -17
-6 -12 -6 4 -10 18 -7 32 4 21 3 22 -12 9 -13 -11 -18 -12 -27 -2 -11 12 -8
55 11 134 3 13 2 21 -3 18 -5 -3 -15 -34 -22 -68 l-12 -63 -54 60 c-55 61 -62
78 -43 105 8 12 10 10 8 -10 -2 -38 0 -50 9 -50 8 0 -4 109 -13 118 -2 3 -9
-16 -16 -42 -13 -53 -29 -52 -28 2 1 32 2 34 8 12 l7 -25 7 24 c3 13 1 33 -4
44 -6 10 -8 31 -5 45 4 19 3 22 -3 12 -10 -18 -26 -98 -23 -120 2 -11 -2 -9
-13 4 -8 11 -15 25 -15 30 0 6 5 4 10 -4 8 -12 10 -10 10 10 0 14 7 50 15 80
20 76 10 75 -13 -1 l-20 -64 -1 55 -1 55 -15 -29 c-17 -31 -20 -60 -5 -36 11
17 13 10 4 -14 -3 -9 -9 -16 -13 -16 -11 0 -11 43 0 57 6 7 9 18 6 25 -2 7
-12 -4 -22 -24 -18 -36 -19 -36 -32 -18 -14 20 -9 64 9 87 5 7 6 22 2 35 -8
22 -8 22 -15 -7 l-7 -30 -1 33 c0 18 6 49 14 69 13 31 13 34 0 23 -8 -7 -15
-22 -15 -34 0 -18 -2 -19 -11 -6 -9 12 -10 12 -5 -3 3 -11 3 -24 -1 -30 -12
-19 -9 -52 4 -57 8 -3 9 -10 4 -19 -14 -22 -64 64 -57 98 6 23 5 24 -7 9 -11
-14 -14 -13 -30 14 -17 30 -25 66 -8 39 6 -8 11 6 16 44 10 84 -1 86 -19 3 -4
-16 -10 -28 -15 -28 -9 0 -42 85 -65 170 -43 155 -141 937 -161 1287 -8 133 4
216 50 358 18 55 45 150 59 210 24 101 26 105 21 47 -3 -40 -1 -61 5 -57 6 3
11 21 11 38 1 26 3 22 11 -18 5 -27 12 -66 15 -85 5 -25 9 -3 14 77 7 111 38
271 64 328 l13 30 1 -26 c2 -43 49 -195 80 -258 29 -56 73 -109 58 -68 -36 97
-49 164 -45 232 4 64 10 83 46 143 23 38 62 91 87 118 l46 49 -25 -45 c-43
-78 -88 -228 -93 -315 -3 -44 -3 -78 0 -75 3 3 12 43 20 90 28 163 95 296 208
412 45 46 53 52 32 23 -58 -79 -135 -225 -119 -225 3 0 21 27 41 60 49 81 142
162 284 248 128 78 167 94 83 36 -64 -45 -69 -64 -7 -25 29 18 87 39 158 55
61 15 126 31 142 36 50 14 51 12 10 -30z m-1494 -1556 c58 -29 104 -115 175
-333 48 -146 51 -159 29 -121 -21 37 -18 14 11 -75 14 -44 35 -87 45 -97 10
-9 19 -24 19 -33 0 -14 -5 -11 -22 10 -12 15 -49 45 -81 66 -62 40 -66 46 -23
29 25 -9 26 -8 26 25 0 19 -13 69 -28 112 -37 100 -36 98 -42 96 -3 -1 -5 14
-6 33 0 19 -16 64 -35 101 -40 80 -113 139 -159 128 -34 -8 -68 -44 -75 -80
-6 -29 -5 -28 15 8 11 20 26 37 32 37 7 0 5 -7 -4 -17 -22 -25 -31 -83 -29
-198 1 -92 30 -264 39 -236 2 6 -1 33 -7 59 -5 26 -12 94 -15 152 -3 68 -1 87
3 55 7 -47 8 -45 11 35 3 82 3 83 11 35 4 -27 7 -101 7 -163 0 -62 3 -116 7
-120 5 -4 5 -2 1 5 -3 6 -2 14 4 18 6 4 10 68 10 163 0 86 4 162 8 167 4 6 16
17 27 25 17 12 16 10 -2 -11 -23 -26 -29 -40 -15 -38 32 5 60 -39 80 -127 8
-35 6 -44 -14 -68 -13 -15 -24 -22 -24 -17 0 6 10 21 21 32 12 12 16 20 8 17
-7 -2 -22 -16 -33 -31 -27 -37 -35 -176 -13 -230 19 -43 14 -49 -7 -9 -8 15
-15 23 -15 17 0 -28 112 -145 126 -131 4 3 -9 21 -29 39 -19 17 -43 53 -53 79
-15 42 -16 56 -6 108 22 109 48 150 98 150 11 0 4 -7 -17 -18 -30 -14 -37 -26
-49 -71 -11 -42 -12 -56 -3 -59 7 -2 10 -8 7 -13 -8 -12 21 -65 40 -73 9 -3
34 -6 55 -6 33 0 47 -8 110 -67 l72 -68 15 -102 c18 -118 12 -145 -40 -180
-69 -47 -174 -19 -249 67 -75 85 -179 335 -212 510 -30 154 -13 313 40 389 34
47 92 57 155 25z m3167 0 c62 -41 89 -210 58 -364 -23 -111 -104 -357 -146
-440 -51 -102 -119 -198 -158 -225 -55 -37 -121 -35 -161 6 -17 17 -34 42 -37
55 -8 31 30 261 50 305 9 19 13 24 10 11 -5 -22 -4 -22 16 -10 20 12 79 121
81 149 0 9 2 10 5 3 3 -6 -4 -34 -14 -62 -21 -56 -18 -71 9 -46 10 9 37 18 61
20 l43 4 -43 -14 c-24 -8 -54 -26 -68 -41 -28 -30 -30 -40 -9 -31 8 3 15 1 15
-4 0 -23 19 -8 22 17 2 21 10 29 36 37 36 10 82 -4 82 -26 0 -9 -3 -9 -12 0
-21 21 -45 14 -51 -16 -3 -15 -20 -42 -37 -60 -17 -18 -30 -41 -28 -50 5 -26
88 -36 88 -11 0 5 -10 9 -22 10 -19 1 -18 2 7 9 17 5 47 28 69 52 l38 43 -32
-50 -31 -50 35 40 c43 49 96 147 96 178 0 13 9 65 20 116 30 141 42 254 31
300 -5 23 -5 41 0 41 8 0 17 -37 22 -105 3 -30 4 -26 4 15 1 68 -9 105 -27
105 -8 0 -26 8 -40 18 -38 27 -66 21 -115 -24 -47 -44 -111 -158 -141 -253
-31 -99 -26 -51 6 60 53 180 106 279 165 305 25 11 72 3 103 -17z m-3118 -196
c0 -7 -7 -1 -17 12 -9 14 -23 34 -32 46 -9 11 -1 5 17 -13 17 -18 32 -38 32
-45z m3067 50 c-3 -8 -6 -5 -6 6 -1 11 2 17 5 13 3 -3 4 -12 1 -19z m10 -160
c-2 -24 -4 -5 -4 42 0 47 2 66 4 43 2 -24 2 -62 0 -85z m30 100 c-3 -8 -6 -5
-6 6 -1 11 2 17 5 13 3 -3 4 -12 1 -19z m-3087 -43 c0 -5 -5 -3 -10 5 -5 8
-10 20 -10 25 0 6 5 3 10 -5 5 -8 10 -19 10 -25z m3087 -7 c-3 -8 -6 -5 -6 6
-1 11 2 17 5 13 3 -3 4 -12 1 -19z m-68 -143 c0 -5 -6 1 -14 15 -8 14 -14 30
-14 35 0 6 6 -1 14 -15 8 -14 14 -29 14 -35z m28 -12 c-3 -10 -5 -4 -5 12 0
17 2 24 5 18 2 -7 2 -21 0 -30z m-2861 -101 c9 -39 14 -80 11 -90 -2 -9 -7 4
-11 31 -5 26 -11 47 -15 47 -3 0 -6 15 -7 33 0 17 -4 48 -8 67 -6 31 -5 32 4
10 6 -14 18 -58 26 -98z m2881 36 c-3 -7 -5 -2 -5 12 0 14 2 19 5 13 2 -7 2
-19 0 -25z m-132 -246 l-39 -37 35 41 c19 22 36 39 39 37 2 -2 -13 -20 -35
-41z m-428 -584 c-3 -8 -6 -5 -6 6 -1 11 2 17 5 13 3 -3 4 -12 1 -19z m-22
-28 c3 -5 1 -10 -4 -10 -6 0 -11 5 -11 10 0 6 2 10 4 10 3 0 8 -4 11 -10z
m-22 -20 c3 -11 2 -22 -2 -24 -4 -3 -8 6 -9 20 -2 29 4 31 11 4z m-74 -41 c-5
-3 -7 -14 -3 -25 5 -16 4 -16 -5 -4 -9 13 -11 12 -11 -4 0 -11 -3 -17 -6 -13
-3 3 0 22 7 41 8 23 16 31 20 24 5 -7 4 -15 -2 -19z m-1959 -66 c42 -72 210
-270 311 -368 156 -151 284 -235 459 -302 47 -18 79 -32 73 -33 -19 0 -131 44
-203 80 -88 44 -182 107 -268 179 -72 62 -96 76 -71 44 11 -14 8 -14 -11 2
-14 11 -26 21 -28 21 -2 1 -4 8 -5 16 -3 19 -36 64 -45 61 -4 -2 -7 2 -7 7 0
6 -4 10 -8 9 -15 -1 -57 52 -51 63 4 7 2 8 -4 4 -11 -7 -38 32 -34 47 1 5 -2
6 -8 2 -12 -8 -14 -4 60 -97 29 -37 56 -65 60 -63 4 3 7 -2 6 -9 -2 -23 161
-221 250 -304 154 -144 341 -237 498 -249 65 -5 189 16 260 43 16 6 18 3 11
-27 -11 -55 -77 -178 -122 -229 -24 -27 -65 -62 -93 -80 -27 -18 -50 -34 -50
-37 0 -2 4 -1 10 2 6 4 7 -5 4 -23 -4 -22 -1 -34 15 -49 26 -24 24 -63 -4 -64
-11 0 3 -6 32 -13 84 -21 103 -38 103 -95 0 -42 -6 -56 -36 -93 -35 -42 -111
-88 -147 -88 -10 0 -15 -5 -12 -11 4 -6 14 -8 22 -5 8 3 11 2 8 -4 -13 -21
240 -64 299 -50 42 9 131 75 183 134 20 23 49 70 66 105 30 62 30 64 21 165
-5 55 -8 144 -7 196 0 89 0 93 -12 60 -9 -22 -14 -28 -14 -15 -1 10 15 56 34
101 19 45 44 116 55 158 21 85 71 183 135 266 23 30 57 84 75 120 18 36 71
119 118 184 46 66 88 131 92 145 5 19 9 6 13 -49 11 -134 29 -938 22 -961 -5
-14 -3 -19 3 -15 12 7 32 93 32 136 0 17 3 30 8 30 26 0 110 -70 130 -110 21
-40 23 -54 18 -135 -11 -200 -86 -361 -243 -525 -260 -273 -710 -430 -1121
-392 -339 32 -620 145 -877 353 -149 121 -274 315 -305 477 -17 85 -8 217 17
250 21 28 187 121 198 111 3 -4 13 -62 21 -130 17 -148 41 -283 60 -341 l14
-43 -5 50 c-2 28 -9 95 -15 150 -8 77 -21 1275 -13 1275 0 0 11 -16 23 -37z
m1936 -25 c-9 -12 -16 -19 -16 -15 0 11 24 47 28 42 2 -2 -3 -14 -12 -27z
m-29 -20 c-3 -7 -5 -2 -5 12 0 14 2 19 5 13 2 -7 2 -19 0 -25z m-36 -20 c-4
-35 -6 -38 -9 -15 -3 26 3 57 10 57 2 0 1 -19 -1 -42z m16 -10 c-3 -8 -6 -5
-6 6 -1 11 2 17 5 13 3 -3 4 -12 1 -19z m-78 -32 c-9 -8 -10 -7 -5 7 3 10 7
24 7 30 1 7 3 4 6 -7 3 -10 -1 -23 -8 -30z m121 -41 c-41 -41 -77 -75 -79 -75
-3 0 28 34 69 75 41 41 77 75 79 75 3 0 -28 -34 -69 -75z m-119 0 c5 4 6 -1 3
-9 -9 -23 -20 -19 -21 7 0 12 1 16 4 9 3 -6 9 -10 14 -7z m-41 -50 c-14 -17
-30 -20 -30 -6 0 5 8 12 18 14 9 3 19 5 21 6 2 0 -2 -6 -9 -14z m70 -28 c0 -1
-26 -27 -57 -57 l-58 -55 55 58 c50 53 60 62 60 54z m-211 -30 c-8 -7 -21 -21
-27 -32 -8 -14 -11 -15 -12 -5 0 15 42 60 50 53 3 -3 -2 -10 -11 -16z m18 -49
c2 -18 0 -19 -7 -8 -7 12 -11 10 -19 -10 -5 -14 -10 -19 -10 -11 -1 11 26 51
33 51 1 0 3 -10 3 -22z m-55 -60 c-8 -8 -9 -4 -5 13 4 13 8 18 11 10 2 -7 -1
-18 -6 -23z m-24 -2 c0 -14 -7 -27 -14 -30 -17 -6 -17 -5 -4 28 12 33 18 33
18 2z m142 21 c0 -2 -17 -19 -37 -38 l-38 -34 34 38 c33 34 41 42 41 34z
m-1220 -73 c0 -22 -16 -17 -17 6 -1 11 2 18 8 15 5 -4 9 -13 9 -21z m58 -13
c-1 -15 2 -34 6 -42 4 -8 0 -5 -8 5 -17 21 -21 48 -9 59 10 11 12 9 11 -22z
m976 14 c-4 -8 -8 -15 -10 -15 -2 0 -4 7 -4 15 0 8 4 15 10 15 5 0 7 -7 4 -15z
m-156 -27 c1 -23 -2 -28 -8 -18 -7 11 -12 7 -24 -20 -8 -19 -15 -29 -16 -22 0
13 37 92 44 92 1 0 3 -14 4 -32z m262 29 c0 -2 -15 -16 -32 -33 l-33 -29 29
33 c28 30 36 37 36 29z m-1274 -29 c10 -12 13 -18 7 -14 -28 16 -10 -12 35
-57 27 -26 52 -44 57 -40 4 5 5 2 1 -4 -5 -9 0 -13 13 -13 11 0 48 -28 83 -63
35 -34 80 -75 100 -90 20 -16 44 -40 53 -53 16 -25 16 -25 -7 -13 -75 40 -143
91 -222 167 -135 133 -186 202 -147 202 4 0 16 -10 27 -22z m934 -31 c0 -8 -7
-14 -15 -14 -11 0 -12 4 -4 14 6 7 13 13 15 13 2 0 4 -6 4 -13z m121 -20 c-10
-9 -11 -8 -5 6 3 10 9 15 12 12 3 -3 0 -11 -7 -18z m149 20 c0 -2 -10 -12 -22
-23 l-23 -19 19 23 c18 21 26 27 26 19z m-580 -53 c0 -8 -4 -12 -10 -9 -5 3
-10 10 -10 16 0 5 5 9 10 9 6 0 10 -7 10 -16z m132 -6 c-7 -7 -12 -8 -12 -2 0
14 12 26 19 19 2 -3 -1 -11 -7 -17z m165 0 c-3 -8 -6 -5 -6 6 -1 11 2 17 5 13
3 -3 4 -12 1 -19z m233 18 c0 -2 -8 -10 -17 -17 -16 -13 -17 -12 -4 4 13 16
21 21 21 13z m-592 -67 c-3 -8 -7 -3 -11 10 -4 17 -3 21 5 13 5 -5 8 -16 6
-23z m39 -11 c-3 -8 -6 -5 -6 6 -1 11 2 17 5 13 3 -3 4 -12 1 -19z m453 7 c0
-2 -10 -9 -22 -15 -22 -11 -22 -10 -4 4 21 17 26 19 26 11z m-233 -111 c-3 -3
-12 -4 -19 -1 -8 3 -5 6 6 6 11 1 17 -2 13 -5z m-284 -11 c-7 -2 -19 -2 -25 0
-7 3 -2 5 12 5 14 0 19 -2 13 -5z m240 0 c-7 -2 -19 -2 -25 0 -7 3 -2 5 12 5
14 0 19 -2 13 -5z m-165 -10 c-10 -2 -28 -2 -40 0 -13 2 -5 4 17 4 22 1 32 -1
23 -4z m105 0 c-7 -2 -21 -2 -30 0 -10 3 -4 5 12 5 17 0 24 -2 18 -5z"/>
<path d="M6421 7804 c0 -11 3 -14 6 -6 3 7 2 16 -1 19 -3 4 -6 -2 -5 -13z"/>
<path d="M5944 7479 c-103 -15 -310 -77 -397 -118 -135 -65 -162 -106 -117
-179 33 -54 33 -54 295 18 312 85 403 87 588 13 48 -19 90 -33 93 -30 21 21
-171 257 -238 293 -30 16 -126 17 -224 3z"/>
<path d="M4365 7422 c-22 -10 -67 -46 -100 -78 -59 -57 -143 -170 -134 -178 2
-3 43 9 89 27 79 29 94 31 210 30 90 0 167 -8 275 -28 83 -15 177 -30 211 -32
58 -5 61 -4 87 27 38 45 36 83 -6 109 -103 63 -336 128 -497 137 -80 4 -101 2
-135 -14z"/>
<path d="M6491 7364 c0 -11 3 -14 6 -6 3 7 2 16 -1 19 -3 4 -6 -2 -5 -13z"/>
<path d="M6502 7260 c0 -19 2 -27 5 -17 2 9 2 25 0 35 -3 9 -5 1 -5 -18z"/>
<path d="M5750 7180 c7 -4 -5 -11 -29 -17 -23 -6 -38 -7 -35 -2 7 12 0 11 -85
-11 -41 -11 -93 -20 -115 -20 -40 0 -41 -1 -20 -18 26 -21 47 -59 49 -89 1
-24 32 -63 49 -63 6 1 35 23 64 50 l53 50 -43 -4 -43 -4 62 30 c33 16 96 36
139 45 97 20 179 8 302 -43 46 -19 87 -32 90 -30 3 3 -30 22 -72 42 -78 35
-184 64 -241 64 -54 0 -160 -28 -223 -58 -34 -16 -62 -26 -62 -22 0 11 129 68
180 79 25 6 77 11 115 12 39 0 66 2 60 4 -21 7 -206 12 -195 5z"/>
<path d="M4588 7173 c12 -2 30 -2 40 0 9 3 -1 5 -23 4 -22 0 -30 -2 -17 -4z"/>
<path d="M4671 7171 c-19 -5 -11 -9 40 -19 69 -15 128 -41 150 -68 8 -11 -1
-7 -26 9 -100 66 -308 75 -427 20 -70 -33 -178 -103 -158 -103 7 0 37 16 68
35 32 19 93 46 137 61 69 23 92 26 165 22 61 -4 98 -12 129 -27 23 -12 45 -20
48 -17 7 7 56 -19 72 -38 19 -22 4 -20 -26 4 -14 11 -33 20 -41 20 -9 0 6 -14
31 -31 26 -17 57 -44 70 -60 20 -26 24 -27 47 -16 14 7 24 21 24 30 -1 9 3 14
8 11 17 -10 5 79 -13 97 -10 10 -43 19 -84 23 -38 4 -76 11 -84 16 -11 7 0 8
34 5 l50 -5 -40 11 c-22 5 -51 7 -63 4 -13 -3 -21 -2 -18 3 3 5 -8 12 -25 16
-35 7 -34 7 -68 -3z m56 -7 c-3 -3 -12 -4 -19 -1 -8 3 -5 6 6 6 11 1 17 -2 13
-5z"/>
<path d="M5708 7173 c7 -3 16 -2 19 1 4 3 -2 6 -13 5 -11 0 -14 -3 -6 -6z"/>
<path d="M4508 7163 c7 -3 16 -2 19 1 4 3 -2 6 -13 5 -11 0 -14 -3 -6 -6z"/>
<path d="M5968 7163 c7 -3 16 -2 19 1 4 3 -2 6 -13 5 -11 0 -14 -3 -6 -6z"/>
<path d="M4468 7153 c7 -3 16 -2 19 1 4 3 -2 6 -13 5 -11 0 -14 -3 -6 -6z"/>
<path d="M6513 7095 c0 -38 2 -53 4 -32 2 20 2 52 0 70 -2 17 -4 1 -4 -38z"/>
<path d="M4908 7133 c12 -2 32 -2 45 0 12 2 2 4 -23 4 -25 0 -35 -2 -22 -4z"/>
<path d="M5095 7085 c-8 -20 -40 -64 -72 -98 -43 -46 -48 -53 -17 -27 46 40
89 95 104 134 15 39 2 31 -15 -9z"/>
<path d="M4510 7096 c-19 -7 -67 -29 -106 -49 -115 -58 -122 -85 -27 -112 32
-9 71 -24 86 -32 16 -8 50 -21 76 -28 40 -12 44 -12 27 0 -11 8 -26 15 -33 15
-35 0 -158 81 -142 93 17 13 99 57 107 57 5 0 9 -17 8 -38 -1 -46 23 -86 67
-112 85 -52 196 11 185 106 -2 19 -1 34 2 34 12 0 105 -63 116 -79 16 -21 6
-27 -66 -42 -30 -6 -71 -20 -90 -31 -19 -10 -26 -16 -15 -12 11 3 43 12 70 19
28 7 59 16 70 20 20 7 20 6 1 -9 -28 -22 -7 -20 32 4 17 11 32 27 32 36 0 27
-69 86 -149 128 -59 31 -85 38 -144 42 -46 2 -85 -1 -107 -10z"/>
<path d="M5810 7101 c-57 -19 -136 -66 -181 -108 -44 -41 -48 -48 -35 -62 8
-9 15 -20 16 -26 1 -10 100 -48 107 -41 2 2 -22 13 -54 24 -32 11 -50 21 -41
21 10 1 41 -8 70 -18 61 -22 131 -37 108 -23 -8 6 -30 13 -49 17 -19 4 -61 20
-95 35 l-61 27 65 41 c76 49 89 51 82 17 -12 -65 53 -135 124 -135 88 0 142
55 130 132 -4 24 -2 38 4 38 14 0 107 -47 114 -58 6 -11 -86 -80 -125 -94 -17
-6 -28 -12 -26 -15 3 -2 22 3 43 12 22 9 73 28 114 42 41 14 77 27 79 29 3 3
-13 22 -34 44 -74 76 -266 131 -355 101z"/>
<path d="M5680 7080 c-18 -12 -2 -12 25 0 13 6 15 9 5 9 -8 0 -22 -4 -30 -9z"/>
<path d="M4755 6865 c-39 -14 -40 -14 -5 -8 41 7 82 22 60 22 -8 0 -33 -7 -55
-14z"/>
<path d="M4665 6850 c11 -5 27 -9 35 -9 9 0 8 4 -5 9 -11 5 -27 9 -35 9 -9 0
-8 -4 5 -9z"/>
<path d="M4755 6829 c-33 -16 -54 -29 -47 -29 15 0 112 48 112 55 0 6 5 8 -65
-26z"/>
<path d="M5858 6843 c6 -2 18 -2 25 0 6 3 1 5 -13 5 -14 0 -19 -2 -12 -5z"/>
<path d="M5878 6783 c7 -3 16 -2 19 1 4 3 -2 6 -13 5 -11 0 -14 -3 -6 -6z"/>
<path d="M6503 6730 c0 -25 2 -35 4 -22 2 12 2 32 0 45 -2 12 -4 2 -4 -23z"/>
<path d="M5661 6660 c14 -31 19 -36 19 -24 0 6 -7 19 -16 30 -14 18 -14 18 -3
-6z"/>
<path d="M5380 6651 c0 -6 4 -13 10 -16 6 -3 7 1 4 9 -7 18 -14 21 -14 7z"/>
<path d="M6493 6625 c0 -22 2 -30 4 -17 2 12 2 30 0 40 -3 9 -5 -1 -4 -23z"/>
<path d="M6482 6530 c0 -19 2 -27 5 -17 2 9 2 25 0 35 -3 9 -5 1 -5 -18z"/>
<path d="M5501 6497 c-7 -10 -8 -17 -2 -21 14 -9 8 -61 -7 -62 -23 -3 -24 -4
-13 -18 17 -20 0 -27 -40 -16 -19 5 -72 11 -117 12 -81 3 -85 2 -106 -25 -14
-17 -28 -26 -38 -22 -8 3 -21 -2 -29 -11 -9 -12 -10 -18 -3 -21 6 -2 20 -10
30 -18 12 -9 0 -7 -34 5 -64 24 -125 26 -143 4 -20 -25 21 -54 77 -54 23 0 46
-4 49 -10 10 -15 -72 -12 -103 4 -82 43 -112 125 -72 193 l22 38 -26 -24 c-40
-37 -49 -86 -27 -137 15 -34 30 -48 81 -75 34 -18 64 -38 67 -45 2 -7 39 -20
81 -29 42 -9 92 -23 110 -31 21 -9 47 -12 68 -8 38 7 47 -8 15 -26 -11 -5 -22
-22 -24 -37 -3 -22 -4 -19 -6 11 l-1 38 -26 -17 c-15 -9 -24 -12 -20 -7 3 6 2
13 -2 16 -16 10 -35 -41 -28 -76 4 -23 3 -29 -4 -18 -13 20 -13 56 0 81 8 14
7 19 -3 19 -9 0 -17 -20 -24 -55 -5 -32 -6 -55 -1 -55 5 0 6 -9 3 -20 -13 -41
60 -65 76 -25 7 19 8 19 8 1 1 -11 4 -16 8 -13 3 4 12 2 18 -3 19 -16 25 34 9
66 -13 25 -13 26 3 13 15 -12 16 -12 9 6 -4 12 -4 16 2 10 5 -5 12 -28 15 -50
5 -27 3 -35 -3 -25 -8 12 -10 11 -10 -7 0 -16 6 -21 20 -20 14 1 20 9 21 27 0
22 1 21 12 -9 7 -19 18 -37 26 -39 8 -3 11 0 7 6 -3 5 -1 21 4 34 10 22 10 22
5 -3 -3 -18 1 -31 12 -40 14 -13 16 -11 11 17 -4 29 -2 31 14 20 20 -12 25
-36 7 -36 -5 0 -7 -4 -4 -10 3 -5 11 -10 16 -10 6 0 7 5 4 10 -3 6 -1 10 4 10
6 0 11 -5 11 -11 0 -7 10 -9 25 -5 17 4 25 2 25 -6 0 -9 3 -8 10 2 7 12 10 12
10 1 0 -7 6 -11 15 -8 8 4 17 1 21 -5 4 -7 3 -8 -4 -4 -7 4 -12 2 -12 -4 0 -7
7 -9 16 -6 9 3 18 6 20 6 3 0 2 6 -1 13 -4 6 0 4 8 -5 8 -10 19 -18 25 -18 6
0 9 -8 5 -17 -5 -15 -3 -15 11 2 10 11 15 15 12 9 -2 -5 11 -18 30 -29 19 -10
34 -21 34 -25 0 -8 -112 -42 -118 -36 -2 2 7 8 20 12 19 6 6 13 -72 39 -52 18
-130 44 -172 59 l-78 26 -52 -27 c-40 -20 -69 -27 -118 -28 -53 0 -81 -8 -149
-39 -58 -27 -105 -41 -150 -45 l-66 -6 80 -6 80 -5 -86 -2 c-63 -2 -105 4
-153 18 -65 20 -87 40 -45 40 12 0 37 9 55 21 19 11 39 17 45 13 8 -4 9 -3 5
4 -4 7 -3 12 2 12 7 0 16 14 40 63 2 4 -1 7 -7 7 -6 0 -11 -6 -11 -12 0 -13
-39 -69 -40 -57 0 3 9 24 20 47 19 39 19 44 5 70 -9 15 -14 20 -11 10 3 -11
-3 -18 -20 -22 -13 -4 -24 -11 -24 -17 0 -7 6 -6 17 2 15 13 15 12 4 -9 -7
-12 -16 -20 -21 -17 -4 3 -6 -4 -3 -15 3 -12 -1 -28 -9 -38 -8 -9 -18 -25 -21
-34 -4 -10 -11 -18 -17 -18 -9 0 13 44 30 60 3 3 6 12 8 20 2 8 -9 2 -23 -15
-18 -22 -23 -24 -18 -10 3 11 11 26 17 34 5 7 11 20 12 28 2 8 13 26 25 39 12
13 20 26 17 29 -11 11 -67 -65 -61 -82 4 -10 2 -14 -5 -9 -13 8 -22 -5 -27
-43 -6 -48 -16 -72 -26 -65 -6 4 -6 11 2 20 6 8 9 17 6 21 -4 3 -16 -6 -28
-20 -11 -15 -25 -27 -31 -27 -7 0 -6 5 1 14 9 11 9 15 -1 20 -8 3 -7 5 3 3 21
-2 69 48 69 71 0 12 -8 7 -26 -15 -14 -18 -31 -33 -39 -33 -7 0 -20 -12 -30
-26 -17 -27 -17 -27 26 -65 50 -43 105 -64 205 -75 53 -6 63 -9 44 -15 -23 -6
-22 -7 10 -8 19 -1 46 -8 60 -16 19 -10 28 -11 39 -2 12 9 13 9 7 0 -4 -7 -2
-13 3 -13 6 0 19 -8 29 -17 11 -10 34 -26 52 -36 27 -14 30 -20 20 -32 -10
-12 -8 -16 11 -23 49 -18 53 -22 19 -16 -19 4 -46 14 -60 22 -25 16 -25 16 -7
-4 20 -24 23 -41 3 -25 -7 6 -35 14 -62 18 -27 3 -68 14 -92 25 -24 10 -47 18
-50 18 -16 -2 98 -56 148 -72 39 -11 48 -17 30 -18 -22 -2 -20 -3 10 -12 19
-5 51 -25 70 -43 51 -49 97 -65 189 -65 86 0 124 10 150 39 18 21 116 81 131
81 6 0 10 5 10 11 0 7 -15 10 -40 7 -22 -2 -40 -2 -40 -1 0 1 21 14 48 27 26
13 67 46 92 72 25 26 39 44 33 40 -9 -5 -11 -2 -7 9 7 17 44 39 84 48 14 3 40
18 59 32 41 30 36 33 -11 6 -37 -22 -153 -54 -171 -48 -7 2 22 11 63 21 73 16
143 54 154 82 3 7 -5 20 -17 29 -12 8 -17 15 -12 15 21 0 65 -55 64 -79 l-1
-26 -8 25 c-8 27 -9 26 -15 -5 -5 -23 16 -39 27 -22 4 7 8 23 9 37 1 21 3 19
13 -12 16 -52 30 -61 21 -13 -4 22 -8 58 -10 80 -1 22 -6 51 -10 64 -6 17 -5
22 3 17 21 -13 13 0 -20 30 -17 16 -28 24 -25 18 7 -12 -21 -29 -31 -19 -3 3
0 5 6 5 7 0 12 7 12 16 0 14 -3 14 -15 4 -13 -10 -18 -11 -28 -1 -9 10 -8 11
6 6 36 -14 15 11 -27 32 -40 19 -46 20 -66 6 -17 -12 -24 -13 -33 -3 -9 10 -8
12 6 7 24 -9 21 5 -4 21 -12 8 -18 9 -14 3 14 -24 -10 -9 -36 22 -21 24 -28
28 -29 15 0 -10 -4 -18 -10 -18 -5 0 -7 -8 -3 -17 3 -10 3 -15 -2 -11 -4 4 -9
20 -10 35 -1 21 -6 28 -23 29 -18 1 -21 -3 -16 -25 6 -25 5 -25 -14 5 -11 17
-35 36 -53 43 -37 13 -59 15 -44 3 6 -4 16 -18 24 -32 l14 -25 -27 24 c-31 30
-44 21 -25 -16 22 -45 22 -50 0 -18 -12 17 -21 38 -21 48 0 9 -6 17 -12 18 -7
0 -3 4 9 9 14 6 21 15 17 24 -4 11 6 18 38 26 121 32 220 88 238 136 12 31 13
114 1 133 -5 8 -18 12 -29 9 -15 -4 -19 -2 -15 9 3 7 2 13 -3 11 -14 -5 -55
28 -46 37 4 5 1 5 -6 1 -9 -6 -5 -17 18 -42 52 -60 39 -145 -32 -209 l-33 -30
32 35 c38 41 53 78 53 127 0 28 -8 44 -40 76 -23 22 -44 46 -49 54 -6 12 -9
12 -20 0z m75 -83 c8 -18 14 -46 14 -61 0 -37 -38 -102 -70 -121 -24 -14 -24
-13 2 9 28 25 58 85 58 117 0 10 -9 35 -20 57 -23 45 -24 49 -9 39 6 -3 17
-21 25 -40z m-90 -93 c17 -11 17 -11 -4 -6 -13 4 -54 7 -91 8 -38 1 -64 6 -58
10 17 11 130 2 153 -12z m-16 -25 c0 -2 -8 -10 -17 -17 -16 -13 -17 -12 -4 4
13 16 21 21 21 13z m-170 -36 c-6 -12 -14 -19 -17 -17 -2 3 1 15 7 27 6 12 14
19 17 17 2 -3 -1 -15 -7 -27z m65 -209 l20 -24 -22 14 c-13 8 -23 20 -23 28 0
8 1 12 3 10 1 -2 11 -15 22 -28z m105 18 c0 -7 16 -34 36 -61 19 -28 33 -53
30 -56 -3 -3 -7 1 -7 9 -1 8 -5 1 -10 -16 l-8 -30 2 30 c1 30 -30 95 -45 95
-4 0 -8 6 -8 14 0 8 -6 17 -12 19 -8 3 -6 6 5 6 9 1 17 -4 17 -10z m-213 -66
c-3 -10 -5 -4 -5 12 0 17 2 24 5 18 2 -7 2 -21 0 -30z m363 16 c0 -6 -4 -7
-10 -4 -5 3 -10 11 -10 16 0 6 5 7 10 4 6 -3 10 -11 10 -16z m-320 -10 c0 -6
-4 -7 -10 -4 -5 3 -10 11 -10 16 0 6 5 7 10 4 6 -3 10 -11 10 -16z m78 -14
c-3 -3 -9 2 -12 12 -6 14 -5 15 5 6 7 -7 10 -15 7 -18z m72 4 c0 -6 -4 -7 -10
-4 -5 3 -10 11 -10 16 0 6 5 7 10 4 6 -3 10 -11 10 -16z m163 -36 c-3 -7 -10
-10 -15 -7 -6 4 -5 10 3 15 13 8 6 13 -13 10 -4 0 -5 6 -1 14 5 14 7 13 18 -2
7 -9 11 -23 8 -30z m-205 1 c-3 -14 -5 -12 -10 9 -3 19 -2 25 4 19 6 -6 8 -18
6 -28z m80 0 c-4 -3 -12 5 -18 18 -12 22 -12 22 6 6 10 -10 15 -20 12 -24z
m67 26 c3 -5 1 -10 -4 -10 -6 0 -11 5 -11 10 0 6 2 10 4 10 3 0 8 -4 11 -10z
m-305 -35 c0 -5 -5 -3 -10 5 -5 8 -10 20 -10 25 0 6 5 3 10 -5 5 -8 10 -19 10
-25z m418 -20 c-8 -8 -26 11 -33 35 -7 25 -7 25 15 -3 12 -15 21 -30 18 -32z
m-401 13 c-3 -8 -6 -5 -6 6 -1 11 2 17 5 13 3 -3 4 -12 1 -19z m453 -6 c0 -15
-2 -15 -10 -2 -13 20 -13 33 0 25 6 -3 10 -14 10 -23z m50 8 c0 -5 -2 -10 -4
-10 -3 0 -8 5 -11 10 -3 6 -1 10 4 10 6 0 11 -4 11 -10z m-983 -28 c-10 -10
-17 -24 -17 -30 0 -7 -5 -12 -10 -12 -7 0 -7 8 1 23 17 32 31 48 37 42 3 -3
-2 -13 -11 -23z m907 3 c-4 -10 3 -18 20 -25 29 -11 37 -23 9 -13 -30 10 -42
23 -40 43 1 10 5 17 9 14 4 -3 5 -11 2 -19z m-76 -10 c-3 -3 -9 2 -12 12 -6
14 -5 15 5 6 7 -7 10 -15 7 -18z m143 -7 c11 -21 11 -22 -4 -9 -10 7 -17 17
-17 22 0 15 9 10 21 -13z m66 -36 c7 -7 13 -18 13 -23 0 -6 -11 3 -25 19 -14
17 -25 36 -25 43 0 8 5 6 12 -6 7 -11 18 -26 25 -33z m45 -36 c12 -43 12 -53
1 -53 -7 0 -13 7 -14 16 -2 42 -9 74 -20 87 -9 12 -9 13 3 9 8 -3 22 -30 30
-59z m-1119 19 c-3 -9 -8 -14 -10 -11 -3 3 -2 9 2 15 9 16 15 13 8 -4z m1025
-20 c-3 -3 -9 2 -12 12 -6 14 -5 15 5 6 7 -7 10 -15 7 -18z m37 7 c-3 -3 -11
0 -18 7 -9 10 -8 11 6 5 10 -3 15 -9 12 -12z m-317 -99 c-15 -2 -42 -2 -60 0
-18 2 -6 4 27 4 33 0 48 -2 33 -4z m-400 -10 c-10 -2 -28 -2 -40 0 -13 2 -5 4
17 4 22 1 32 -1 23 -4z m245 0 c-7 -2 -19 -2 -25 0 -7 3 -2 5 12 5 14 0 19 -2
13 -5z m17 -50 c3 -3 -94 -3 -215 -2 -121 2 -230 0 -242 -5 -14 -4 -23 -3 -23
3 0 5 15 12 33 14 39 5 440 -4 447 -10z m-415 -23 c-3 -5 -13 -10 -21 -10 -8
0 -14 5 -14 10 0 6 9 10 21 10 11 0 17 -4 14 -10z m368 -147 c-29 -2 -78 -2
-110 0 -32 2 -8 3 52 3 61 0 87 -1 58 -3z m-228 -43 c10 -11 16 -20 13 -20 -3
0 -13 9 -23 20 -10 11 -16 20 -13 20 3 0 13 -9 23 -20z m128 -77 c-7 -2 -21
-2 -30 0 -10 3 -4 5 12 5 17 0 24 -2 18 -5z"/>
<path d="M6472 6460 c0 -19 2 -27 5 -17 2 9 2 25 0 35 -3 9 -5 1 -5 -18z"/>
<path d="M5731 6454 c0 -11 3 -14 6 -6 3 7 2 16 -1 19 -3 4 -6 -2 -5 -13z"/>
<path d="M6462 6365 c0 -16 2 -22 5 -12 2 9 2 23 0 30 -3 6 -5 -1 -5 -18z"/>
<path d="M5740 6322 c0 -6 -12 -25 -27 -43 -22 -25 -23 -30 -7 -21 23 12 51
59 41 69 -4 3 -7 1 -7 -5z"/>
<path d="M6452 6275 c0 -16 2 -22 5 -12 2 9 2 23 0 30 -3 6 -5 -1 -5 -18z"/>
<path d="M6442 6215 c0 -16 2 -22 5 -12 2 9 2 23 0 30 -3 6 -5 -1 -5 -18z"/>
<path d="M6432 6140 c0 -19 2 -27 5 -17 2 9 2 25 0 35 -3 9 -5 1 -5 -18z"/>
<path d="M5105 6059 c-52 -42 -72 -75 -38 -62 15 6 15 3 -4 -21 -28 -35 -20
-66 10 -39 11 10 17 12 13 6 -4 -7 -3 -13 1 -13 8 0 32 32 45 60 6 13 7 13 7
-1 1 -9 -6 -22 -14 -29 -17 -14 -20 -40 -5 -40 6 0 10 8 11 18 0 10 3 12 6 5
2 -7 9 -13 14 -13 6 0 8 4 4 9 -3 5 0 13 6 17 7 4 9 3 6 -3 -7 -11 20 -40 28
-31 9 8 -7 68 -16 62 -11 -7 -11 -7 6 41 8 22 14 48 15 58 0 30 -42 19 -95
-24z m64 -22 c-5 -20 -12 -37 -15 -37 -6 0 5 59 13 73 11 18 12 -1 2 -36z
m-44 -23 c-10 -20 -15 -24 -15 -11 0 10 -4 15 -10 12 -5 -3 -7 0 -4 9 5 12 33
26 42 21 1 -1 -4 -15 -13 -31z"/>
<path d="M6417 6063 c-12 -80 -19 -158 -14 -153 8 8 30 180 24 186 -3 3 -7
-12 -10 -33z"/>
<path d="M5059 6058 c-24 -18 -48 -33 -53 -33 -5 0 -11 -11 -13 -25 -1 -14 0
-20 4 -15 5 6 34 32 66 58 66 53 63 64 -4 15z"/>
<path d="M4956 6044 c-20 -18 -36 -24 -52 -20 -17 5 -24 2 -24 -8 0 -7 -7 -20
-17 -27 -15 -13 -15 -12 -3 11 l13 25 -27 -24 c-27 -25 -34 -37 -15 -25 6 3
15 1 19 -6 6 -10 14 -4 29 21 l21 34 -5 -44 c-3 -24 -12 -49 -20 -55 -17 -12
-40 -80 -24 -71 5 4 9 15 9 25 0 23 16 35 23 18 3 -8 6 -6 6 5 1 9 6 17 11 17
7 0 7 -7 0 -20 -6 -11 -15 -18 -21 -15 -5 4 -9 -6 -9 -22 1 -24 2 -26 11 -10
6 9 14 15 20 12 8 -6 76 38 90 59 4 4 9 2 12 -5 4 -12 6 -12 6 -1 1 8 10 25
21 39 25 32 16 49 -11 22 -11 -11 -25 -17 -31 -13 -6 4 -8 3 -4 -4 3 -6 2 -13
-3 -16 -20 -13 -20 14 -1 59 31 73 25 82 -24 39z m12 -35 c-11 -23 -22 -52
-24 -65 -3 -19 -1 -22 13 -17 10 3 16 4 13 2 -3 -2 -21 -17 -40 -34 -19 -16
-29 -23 -23 -15 5 8 13 28 17 44 6 26 5 28 -8 17 -26 -22 -18 1 12 33 l27 30
-27 -17 c-20 -13 -26 -13 -22 -3 3 7 16 18 30 25 13 6 27 18 30 26 4 8 10 15
14 15 5 0 -1 -19 -12 -41z"/>
<path d="M4670 5953 c-16 -21 -20 -23 -16 -8 6 20 6 20 -9 1 -8 -11 -15 -23
-15 -27 0 -4 -9 -6 -20 -4 -11 2 -20 -1 -20 -8 0 -14 -51 -89 -57 -83 -3 2 1
14 7 26 6 12 9 24 6 27 -2 3 -12 -12 -21 -33 -15 -35 -15 -40 0 -50 10 -8 12
-14 6 -19 -6 -3 -11 -11 -11 -17 0 -6 6 -6 15 2 9 7 13 20 10 28 -6 17 32 82
49 82 7 0 25 14 39 30 15 17 31 30 36 30 5 0 16 11 25 25 22 34 3 32 -24 -2z
m-59 -66 c-10 -9 -11 -8 -5 6 3 10 9 15 12 12 3 -3 0 -11 -7 -18z"/>
<path d="M4827 5953 c-4 -3 -7 -11 -7 -17 0 -6 5 -5 12 2 6 6 9 14 7 17 -3 3
-9 2 -12 -2z"/>
<path d="M5027 5933 c-4 -3 -7 -15 -7 -26 0 -25 9 -17 15 12 4 22 2 25 -8 14z"/>
<path d="M4167 5873 c-8 -21 -18 -51 -21 -68 -5 -29 -5 -29 5 -5 31 71 42 101
37 105 -3 3 -12 -12 -21 -32z"/>
<path d="M6391 5884 c0 -11 3 -14 6 -6 3 7 2 16 -1 19 -3 4 -6 -2 -5 -13z"/>
<path d="M4822 5878 c-14 -14 -16 -28 -3 -28 5 0 11 9 14 20 6 23 5 24 -11 8z"/>
<path d="M6366 5868 c4 -6 7 -27 6 -47 -1 -20 3 -43 8 -51 7 -11 10 -4 10 25
0 49 -9 85 -22 85 -5 0 -6 -5 -2 -12z"/>
<path d="M5900 5855 c7 -8 16 -30 20 -48 l8 -32 1 30 c0 29 -18 65 -34 65 -4
0 -2 -7 5 -15z"/>
<path d="M4235 5800 c-3 -5 -1 -10 4 -10 6 0 11 5 11 10 0 6 -2 10 -4 10 -3 0
-8 -4 -11 -10z"/>
<path d="M4201 5783 c-1 -7 -6 -12 -13 -10 -6 1 -13 -7 -15 -18 -4 -17 -2 -18
7 -5 12 16 12 9 -6 -49 -5 -16 -4 -22 3 -18 6 4 13 20 17 37 3 18 10 29 16 25
12 -7 12 2 0 30 -5 11 -9 14 -9 8z"/>
<path d="M4241 5763 c0 -6 -4 -20 -7 -30 -5 -14 -4 -15 5 -7 7 7 11 20 8 30
-3 11 -5 14 -6 7z"/>
<path d="M4556 5744 c-4 -9 -4 -19 -1 -22 2 -3 7 3 11 12 4 9 4 19 1 22 -2 3
-7 -3 -11 -12z"/>
<path d="M4286 5725 c-9 -26 -7 -32 5 -12 6 10 9 21 6 23 -2 3 -7 -2 -11 -11z"/>
<path d="M4252 5700 c0 -14 2 -19 5 -12 2 6 2 18 0 25 -3 6 -5 1 -5 -13z"/>
<path d="M5872 5685 c0 -16 2 -22 5 -12 2 9 2 23 0 30 -3 6 -5 -1 -5 -18z"/>
<path d="M4309 5674 c-5 -15 -8 -29 -5 -31 2 -2 8 10 14 26 13 38 5 41 -9 5z"/>
<path d="M4264 5669 c-4 -6 -10 -25 -14 -43 -4 -17 -11 -40 -15 -51 -6 -19 -6
-19 8 -2 11 13 16 15 19 5 3 -7 5 9 6 36 1 26 5 52 8 57 3 5 3 9 0 9 -3 0 -8
-5 -12 -11z"/>
<path d="M4768 5663 c7 -3 16 -2 19 1 4 3 -2 6 -13 5 -11 0 -14 -3 -6 -6z"/>
<path d="M4740 5656 c0 -3 14 -12 30 -21 17 -9 30 -13 30 -11 0 3 -13 12 -30
21 -16 9 -30 13 -30 11z"/>
<path d="M4322 5638 c-16 -21 -26 -62 -13 -54 6 4 11 15 11 25 0 9 5 22 12 29
7 7 9 12 6 12 -3 0 -10 -6 -16 -12z"/>
<path d="M4274 5555 c-7 -32 -7 -50 1 -65 10 -18 12 -11 13 44 1 36 1 66 -1
66 -1 0 -7 -20 -13 -45z"/>
<path d="M4369 5588 c-5 -22 -9 -91 -4 -87 3 4 7 20 10 37 2 17 6 36 10 42 3
5 1 10 -4 10 -6 0 -11 -1 -12 -2z"/>
<path d="M4380 5498 c-22 -34 -40 -78 -39 -97 0 -11 3 -10 9 5 5 12 13 25 19
29 6 3 11 14 11 24 0 10 7 24 15 31 8 7 15 16 15 21 0 16 -15 9 -30 -13z"/>
<path d="M4406 5462 l-19 -27 24 22 c12 12 21 24 18 27 -2 2 -13 -8 -23 -22z"/>
<path d="M4940 5480 c8 -5 20 -10 25 -10 6 0 3 5 -5 10 -8 5 -19 10 -25 10 -5
0 -3 -5 5 -10z"/>
<path d="M6021 5434 c0 -11 3 -14 6 -6 3 7 2 16 -1 19 -3 4 -6 -2 -5 -13z"/>
<path d="M6012 5390 c0 -14 2 -19 5 -12 2 6 2 18 0 25 -3 6 -5 1 -5 -13z"/>
<path d="M4486 5383 c-6 -14 -5 -15 5 -6 7 7 10 15 7 18 -3 3 -9 -2 -12 -12z"/>
<path d="M4525 5330 c-3 -5 -1 -10 4 -10 6 0 11 5 11 10 0 6 -2 10 -4 10 -3 0
-8 -4 -11 -10z"/>
<path d="M4525 5263 c2 -23 6 -46 9 -51 3 -6 1 -12 -6 -14 -9 -3 -8 -9 5 -22
9 -10 17 -22 17 -27 0 -6 5 -7 10 -4 6 3 10 -1 10 -10 0 -9 5 -13 10 -10 11 7
2 85 -11 100 -6 5 -7 -3 -3 -22 3 -17 2 -33 -2 -36 -9 -5 -16 30 -18 90 -1 17
-4 29 -8 27 -3 -2 -9 2 -11 8 -3 7 -4 -6 -2 -29z"/>
<path d="M5850 5284 c0 -8 5 -12 10 -9 6 3 10 10 10 16 0 5 -4 9 -10 9 -5 0
-10 -7 -10 -16z"/>
<path d="M5900 5273 c0 -4 5 -15 10 -23 8 -13 10 -13 10 2 0 9 -4 20 -10 23
-5 3 -10 3 -10 -2z"/>
<path d="M4580 5248 c0 -23 17 -31 24 -12 4 9 4 19 1 22 -3 3 -5 -1 -5 -9 0
-11 -2 -11 -10 1 -8 13 -10 13 -10 -2z"/>
<path d="M4646 5193 c4 -21 13 -49 21 -63 l14 -25 -6 25 c-4 14 -9 40 -12 58
-3 18 -9 35 -15 38 -6 4 -7 -9 -2 -33z"/>
<path d="M5806 5218 c-3 -7 -9 -28 -15 -47 -14 -43 -15 -79 -2 -65 10 9 32
124 24 124 -2 0 -5 -6 -7 -12z"/>
<path d="M5250 5211 c0 -6 4 -13 10 -16 6 -3 7 1 4 9 -7 18 -14 21 -14 7z"/>
<path d="M5441 5174 c0 -11 3 -14 6 -6 3 7 2 16 -1 19 -3 4 -6 -2 -5 -13z"/>
<path d="M5572 5165 c0 -16 2 -22 5 -12 2 9 2 23 0 30 -3 6 -5 -1 -5 -18z"/>
<path d="M5537 5161 c-4 -17 -3 -21 5 -13 5 5 8 16 6 23 -3 8 -7 3 -11 -10z"/>
<path d="M5746 5165 c-3 -8 -1 -15 4 -15 6 0 10 7 10 15 0 8 -2 15 -4 15 -2 0
-6 -7 -10 -15z"/>
<path d="M4627 5141 c-12 -58 -10 -67 13 -46 13 11 17 22 11 29 -5 6 -11 20
-13 31 -3 15 -6 11 -11 -14z"/>
<path d="M4740 5153 c0 -10 5 -25 10 -33 8 -12 10 -9 10 12 0 15 -4 30 -10 33
-5 3 -10 -2 -10 -12z"/>
<path d="M5601 5165 c1 -19 18 -51 18 -35 0 8 -4 22 -9 30 -5 8 -9 11 -9 5z"/>
<path d="M5021 5144 c0 -11 3 -14 6 -6 3 7 2 16 -1 19 -3 4 -6 -2 -5 -13z"/>
<path d="M5291 5150 c0 -8 6 -33 14 -55 12 -33 14 -36 15 -14 0 14 -4 29 -9
35 -5 5 -11 18 -14 29 -3 11 -5 13 -6 5z"/>
<path d="M5111 5134 c0 -11 3 -14 6 -6 3 7 2 16 -1 19 -3 4 -6 -2 -5 -13z"/>
<path d="M5321 5134 c0 -11 3 -14 6 -6 3 7 2 16 -1 19 -3 4 -6 -2 -5 -13z"/>
<path d="M5442 5120 c0 -19 2 -27 5 -17 2 9 2 25 0 35 -3 9 -5 1 -5 -18z"/>
<path d="M5677 5131 c-4 -17 -3 -21 5 -13 5 5 8 16 6 23 -3 8 -7 3 -11 -10z"/>
<path d="M5712 5124 c-8 -15 -9 -32 -3 -41 6 -12 10 -7 15 22 9 45 3 54 -12
19z"/>
<path d="M4861 5100 c0 -14 -4 -36 -7 -50 -5 -22 -4 -23 6 -7 6 9 9 32 7 50
-3 25 -4 26 -6 7z"/>
<path d="M4891 5104 c0 -11 3 -14 6 -6 3 7 2 16 -1 19 -3 4 -6 -2 -5 -13z"/>
<path d="M5220 5087 c0 -23 4 -36 10 -32 13 8 13 35 0 55 -7 11 -10 5 -10 -23z"/>
<path d="M5501 5104 c0 -11 3 -14 6 -6 3 7 2 16 -1 19 -3 4 -6 -2 -5 -13z"/>
<path d="M4990 5086 c-5 -15 -10 -39 -9 -54 0 -19 4 -12 14 23 14 55 12 74 -5
31z"/>
<path d="M5102 5074 c-1 -23 -4 -57 -7 -75 -3 -19 -2 -27 1 -19 4 8 16 25 27
38 11 12 15 22 9 22 -7 0 -13 -6 -14 -12 0 -7 -4 10 -8 37 l-7 50 -1 -41z"/>
<path d="M5537 5094 c-4 -4 -7 -14 -7 -23 0 -11 3 -12 11 -4 6 6 10 16 7 23
-2 6 -7 8 -11 4z"/>
<path d="M5602 5080 c0 -14 2 -19 5 -12 2 6 2 18 0 25 -3 6 -5 1 -5 -13z"/>
<path d="M5447 5074 c-4 -4 -7 -28 -6 -53 l1 -46 9 45 c9 48 8 66 -4 54z"/>
<path d="M4812 5050 c0 -14 2 -19 5 -12 2 6 2 18 0 25 -3 6 -5 1 -5 -13z"/>
<path d="M5506 5025 c-3 -9 -6 -24 -5 -33 0 -9 5 -4 10 12 9 32 6 48 -5 21z"/>
<path d="M5182 5000 c0 -14 2 -19 5 -12 2 6 2 18 0 25 -3 6 -5 1 -5 -13z"/>
<path d="M4935 4967 c-3 -12 -2 -34 4 -47 9 -22 10 -19 10 23 1 51 -5 61 -14
24z"/>
<path d="M5441 4963 c-1 -6 -4 -20 -7 -30 -5 -17 -5 -17 6 0 6 10 9 23 6 30
-3 9 -5 9 -5 0z"/>
<path d="M3673 6640 c0 -36 2 -50 4 -32 2 17 2 47 0 65 -2 17 -4 3 -4 -33z"/>
<path d="M3622 6520 c0 -14 2 -19 5 -12 2 6 2 18 0 25 -3 6 -5 1 -5 -13z"/>
<path d="M3622 6460 c0 -14 2 -19 5 -12 2 6 2 18 0 25 -3 6 -5 1 -5 -13z"/>
<path d="M3672 6450 c0 -19 2 -27 5 -17 2 9 2 25 0 35 -3 9 -5 1 -5 -18z"/>
<path d="M3662 6390 c0 -14 2 -19 5 -12 2 6 2 18 0 25 -3 6 -5 1 -5 -13z"/>
<path d="M3827 6283 c-4 -3 -7 -11 -7 -17 0 -7 3 -7 8 0 4 7 16 14 27 17 19 5
19 5 -1 6 -11 0 -24 -2 -27 -6z"/>
<path d="M3870 6254 c1 -23 19 -34 52 -32 27 2 34 6 26 15 -5 6 -17 11 -26 11
-9 0 -25 3 -34 7 -10 4 -18 3 -18 -1z"/>
<path d="M4030 5979 c-8 -19 -14 -38 -12 -42 1 -5 -2 -6 -7 -2 -6 3 -15 -3
-21 -14 -6 -12 -25 -25 -43 -30 -28 -8 -29 -9 -8 -10 36 -1 89 39 102 77 15
45 6 63 -11 21z"/>
<path d="M6895 6820 c10 -11 20 -18 23 -15 7 6 -18 35 -31 35 -5 0 -2 -9 8
-20z"/>
<path d="M6701 6733 c-10 -26 -10 -27 4 -9 8 11 15 23 15 28 0 15 -7 8 -19
-19z"/>
<path d="M6547 6213 c-4 -3 -7 -11 -7 -17 0 -6 5 -5 12 2 6 6 9 14 7 17 -3 3
-9 2 -12 -2z"/>
<path d="M6510 6175 c0 -8 2 -15 4 -15 2 0 6 7 10 15 3 8 1 15 -4 15 -6 0 -10
-7 -10 -15z"/>
<path d="M6573 5843 c9 -2 23 -2 30 0 6 3 -1 5 -18 5 -16 0 -22 -2 -12 -5z"/>
<path d="M6263 5000 c0 -25 2 -35 4 -22 2 12 2 32 0 45 -2 12 -4 2 -4 -23z"/>
<path d="M6262 4920 c0 -19 2 -27 5 -17 2 9 2 25 0 35 -3 9 -5 1 -5 -18z"/>
<path d="M6273 4575 c0 -33 2 -45 4 -27 2 18 2 45 0 60 -2 15 -4 0 -4 -33z"/>
<path d="M6462 4310 c0 -14 2 -19 5 -12 2 6 2 18 0 25 -3 6 -5 1 -5 -13z"/>
<path d="M6462 4185 c0 -16 2 -22 5 -12 2 9 2 23 0 30 -3 6 -5 -1 -5 -18z"/>
<path d="M6451 4124 c0 -11 3 -14 6 -6 3 7 2 16 -1 19 -3 4 -6 -2 -5 -13z"/>
<path d="M6392 3945 c-12 -25 -20 -45 -17 -45 7 0 47 81 43 86 -3 2 -14 -17
-26 -41z"/>
</g>
</svg>
